<svg id="svg" version="1.1" xmlns="http://www.w3.org/2000/svg" xmlns:xlink="http://www.w3.org/1999/xlink" width="400" height="1117.0731707317073" viewBox="0, 0, 400,1117.0731707317073"><g id="svgg"><path id="path0" d="M188.359 15.337 C 186.310 15.538,183.062 16.035,181.141 16.442 C 179.220 16.848,176.391 17.309,174.854 17.467 C 173.318 17.624,170.594 18.140,168.801 18.613 C 167.008 19.087,164.179 19.613,162.515 19.782 C 160.850 19.951,158.619 20.472,157.557 20.940 C 156.496 21.408,154.924 21.939,154.065 22.121 C 153.206 22.303,151.870 22.836,151.098 23.304 C 150.325 23.773,147.915 24.778,145.742 25.537 C 135.114 29.251,122.772 35.198,119.643 38.113 C 119.051 38.664,118.389 39.115,118.170 39.115 C 117.952 39.115,117.206 39.498,116.512 39.967 C 115.818 40.435,114.003 41.640,112.479 42.644 C 101.227 50.058,90.048 60.837,77.106 76.751 C 74.125 80.417,68.206 89.486,66.225 93.423 C 64.797 96.262,62.814 99.835,62.360 100.389 C 62.132 100.668,61.631 101.785,61.248 102.872 C 60.864 103.959,59.604 106.739,58.447 109.049 C 57.291 111.359,56.345 113.864,56.345 114.615 C 56.345 115.365,55.851 116.968,55.247 118.176 C 54.643 119.384,54.013 121.420,53.846 122.701 C 53.680 123.981,53.108 125.621,52.576 126.345 C 52.015 127.107,51.428 128.931,51.180 130.679 C 50.945 132.339,50.465 134.262,50.113 134.951 C 49.328 136.489,48.428 140.606,48.428 142.659 C 48.428 143.495,47.957 145.842,47.381 147.875 C 45.934 152.979,45.769 188.414,47.166 193.906 C 47.616 195.677,48.297 199.207,48.679 201.750 C 49.061 204.293,49.568 206.736,49.804 207.178 C 50.041 207.621,50.481 209.435,50.781 211.209 C 51.081 212.984,51.932 215.833,52.672 217.540 C 53.411 219.248,54.016 220.959,54.016 221.342 C 54.016 222.169,56.486 229.012,57.742 231.665 C 62.891 242.540,63.296 246.226,59.429 247.011 C 50.797 248.765,51.323 248.535,45.484 253.111 C 42.944 255.102,38.184 261.676,38.184 263.193 C 38.184 263.678,37.872 264.678,37.491 265.415 C 33.798 272.555,37.272 288.167,43.712 293.376 C 44.641 294.128,46.290 295.462,47.375 296.341 C 51.023 299.293,52.376 299.897,56.371 300.352 C 60.372 300.809,61.965 301.511,62.964 303.260 C 63.450 304.110,63.562 364.660,63.562 625.228 L 63.562 946.148 62.587 947.463 C 61.496 948.935,59.268 949.876,56.784 949.916 C 53.767 949.963,42.845 956.574,42.147 958.774 C 42.005 959.220,41.157 960.610,40.260 961.864 C 36.540 967.071,34.661 978.116,36.500 983.977 C 39.892 994.792,51.559 1004.424,61.268 1004.424 C 63.590 1004.424,66.145 1006.213,70.563 1010.932 C 76.911 1017.714,82.714 1022.720,89.937 1027.646 C 93.419 1030.020,95.542 1031.280,101.513 1034.520 C 102.154 1034.867,102.918 1035.153,103.213 1035.154 C 103.507 1035.156,104.804 1035.868,106.095 1036.737 C 110.217 1039.511,116.278 1042.309,120.838 1043.544 C 123.428 1044.245,131.961 1047.299,132.455 1047.702 C 132.725 1047.922,134.665 1048.424,136.766 1048.817 C 139.001 1049.236,141.149 1049.950,141.943 1050.536 C 142.956 1051.285,144.349 1051.635,147.436 1051.918 C 149.710 1052.126,152.771 1052.735,154.237 1053.272 C 155.704 1053.810,158.009 1054.248,159.360 1054.248 C 161.529 1054.246,166.905 1055.455,169.830 1056.602 C 171.085 1057.095,172.521 1059.838,172.935 1062.534 C 176.217 1083.907,199.330 1094.655,218.034 1083.506 C 225.124 1079.279,230.823 1070.600,231.828 1062.499 C 232.593 1056.322,234.370 1055.001,242.608 1054.485 C 245.344 1054.313,249.240 1053.699,251.455 1053.090 C 253.632 1052.491,256.280 1051.879,257.340 1051.731 C 258.399 1051.582,260.390 1050.938,261.764 1050.298 C 263.137 1049.659,264.858 1049.134,265.587 1049.131 C 266.317 1049.129,267.574 1048.826,268.381 1048.457 C 269.188 1048.089,272.887 1046.743,276.601 1045.468 C 280.314 1044.192,284.237 1042.820,285.318 1042.419 C 288.539 1041.225,308.403 1030.929,309.662 1029.801 C 310.303 1029.228,311.455 1028.370,312.224 1027.895 C 315.107 1026.113,324.551 1017.975,330.654 1012.013 C 337.383 1005.440,339.033 1004.424,342.982 1004.424 C 357.374 1004.424,370.198 991.283,370.198 976.537 C 370.198 964.195,358.878 950.203,348.645 949.897 C 344.899 949.785,342.527 948.849,341.677 947.148 C 340.844 945.481,340.427 307.326,341.257 304.773 C 341.424 304.261,341.787 303.458,342.065 302.990 C 342.612 302.066,347.243 300.351,349.199 300.347 C 351.479 300.342,353.765 299.409,357.475 296.971 C 374.500 285.780,374.615 262.107,357.698 251.047 C 353.995 248.626,352.368 248.099,343.752 246.531 C 336.780 245.263,336.789 244.133,343.882 230.035 C 344.977 227.858,346.118 225.053,346.417 223.802 C 346.715 222.551,347.360 220.743,347.850 219.784 C 348.339 218.825,348.949 216.737,349.206 215.144 C 349.462 213.550,349.860 212.006,350.089 211.711 C 350.672 210.962,351.452 207.532,351.845 203.982 C 352.029 202.331,352.573 199.712,353.055 198.162 C 355.471 190.397,355.457 154.145,353.034 145.518 C 352.531 143.725,351.970 140.582,351.787 138.533 C 351.605 136.484,351.161 134.229,350.800 133.522 C 350.440 132.815,349.642 130.405,349.027 128.167 C 346.989 120.750,346.014 117.601,345.098 115.483 C 344.600 114.331,343.427 111.167,342.491 108.452 C 341.554 105.738,340.124 102.415,339.312 101.069 C 338.499 99.723,337.311 97.704,336.671 96.584 C 325.981 77.871,310.341 58.974,297.788 49.606 C 295.739 48.077,292.806 45.751,291.269 44.437 C 289.732 43.122,286.589 41.050,284.284 39.832 C 281.979 38.613,279.083 36.896,277.849 36.015 C 274.659 33.739,269.543 31.250,261.297 27.961 C 257.361 26.392,252.647 24.383,250.821 23.497 C 248.995 22.611,246.864 21.886,246.086 21.886 C 245.307 21.886,243.526 21.491,242.126 21.008 C 240.726 20.525,238.331 19.980,236.804 19.798 C 235.277 19.615,232.972 19.048,231.682 18.538 C 230.173 17.941,227.426 17.472,223.981 17.222 C 221.036 17.008,217.369 16.487,215.832 16.064 C 212.621 15.180,194.767 14.707,188.359 15.337 M211.641 27.034 C 219.935 27.396,223.598 27.745,225.844 28.385 C 227.509 28.860,230.667 29.578,232.863 29.981 C 238.754 31.063,253.850 36.139,259.206 38.839 C 260.524 39.503,261.739 40.047,261.906 40.047 C 262.073 40.047,263.300 40.740,264.632 41.587 C 265.965 42.434,267.980 43.494,269.111 43.942 C 271.898 45.047,277.487 48.463,281.723 51.650 C 283.644 53.096,286.368 55.037,287.776 55.964 C 292.845 59.299,306.526 72.654,311.779 79.395 C 316.254 85.136,322.048 93.300,323.181 95.460 C 323.785 96.612,324.960 98.603,325.792 99.884 C 326.624 101.164,327.875 103.679,328.572 105.471 C 329.269 107.264,330.223 109.287,330.694 109.967 C 331.164 110.647,331.549 111.485,331.550 111.830 C 331.551 112.174,331.995 113.184,332.537 114.072 C 333.079 114.961,333.829 116.742,334.205 118.030 C 334.580 119.319,335.156 120.794,335.484 121.308 C 335.811 121.823,336.317 123.349,336.606 124.700 C 336.896 126.050,337.533 127.939,338.022 128.897 C 338.510 129.855,339.065 131.682,339.255 132.956 C 339.445 134.231,339.985 136.396,340.456 137.768 C 340.926 139.141,341.634 142.912,342.029 146.150 C 342.424 149.388,343.002 152.771,343.314 153.667 C 344.397 156.776,344.048 181.665,342.825 188.591 C 342.259 191.793,341.796 195.413,341.795 196.636 C 341.794 197.859,341.368 200.059,340.848 201.525 C 340.328 202.991,339.682 205.763,339.413 207.683 C 339.143 209.604,338.546 211.804,338.086 212.573 C 337.626 213.341,336.995 215.064,336.684 216.401 C 336.373 217.737,335.728 219.598,335.250 220.535 C 334.772 221.472,334.239 223.186,334.066 224.343 C 333.555 227.749,324.379 244.763,322.395 245.983 C 320.370 247.229,80.049 247.021,78.142 245.772 C 77.365 245.263,75.725 242.591,73.569 238.322 C 71.720 234.660,70.037 231.452,69.829 231.192 C 69.275 230.500,64.704 218.478,64.166 216.298 C 63.913 215.274,63.328 213.597,62.867 212.573 C 61.611 209.779,61.506 209.350,60.998 204.860 C 60.740 202.580,60.130 199.703,59.642 198.467 C 59.131 197.169,58.629 194.363,58.455 191.824 C 58.289 189.406,57.801 185.017,57.370 182.072 C 56.461 175.855,56.368 164.015,57.199 160.262 C 57.501 158.896,57.966 154.727,58.230 150.999 C 58.557 146.399,59.015 143.380,59.653 141.609 C 60.171 140.174,60.789 137.700,61.026 136.113 C 61.262 134.526,61.884 132.406,62.407 131.402 C 62.931 130.399,63.484 128.449,63.637 127.070 C 63.789 125.692,64.320 123.889,64.815 123.065 C 65.310 122.242,66.098 120.251,66.567 118.642 C 67.441 115.638,73.220 103.648,76.394 98.254 C 77.373 96.589,78.689 94.284,79.318 93.132 C 79.947 91.979,81.688 89.419,83.188 87.443 C 84.687 85.467,86.956 82.356,88.229 80.530 C 89.502 78.704,94.426 73.363,99.172 68.661 C 107.871 60.042,109.009 59.033,113.848 55.646 C 115.312 54.622,117.318 53.155,118.306 52.386 C 122.277 49.299,124.355 47.979,130.151 44.861 C 142.625 38.153,148.970 35.490,160.885 31.960 C 162.165 31.581,164.051 30.950,165.076 30.557 C 166.100 30.164,167.912 29.834,169.101 29.823 C 170.291 29.811,172.596 29.401,174.223 28.911 C 178.870 27.512,179.848 27.386,188.787 27.027 C 193.418 26.841,197.939 26.657,198.836 26.617 C 199.732 26.578,205.495 26.765,211.641 27.034 M182.790 47.466 C 182.642 47.705,181.320 48.135,179.852 48.422 C 178.384 48.710,176.030 49.433,174.622 50.029 C 173.213 50.625,171.432 51.258,170.664 51.435 C 169.895 51.612,168.847 52.128,168.335 52.582 C 167.823 53.036,165.623 54.199,163.446 55.166 C 155.682 58.614,150.096 61.827,145.510 65.482 C 143.781 66.859,142.215 67.986,142.029 67.986 C 140.570 67.986,123.022 84.670,118.764 90.105 C 116.087 93.523,110.589 101.250,108.991 103.842 C 103.445 112.836,97.788 123.615,97.788 125.189 C 97.788 126.068,95.039 133.739,94.344 134.800 C 93.992 135.337,93.448 137.025,93.135 138.552 C 92.822 140.078,92.058 142.409,91.437 143.731 C 90.623 145.465,90.189 147.500,89.878 151.040 C 89.641 153.738,89.100 157.138,88.676 158.595 C 87.548 162.477,87.544 193.699,88.672 197.206 C 89.083 198.487,89.631 201.681,89.888 204.306 C 90.283 208.335,90.572 209.418,91.744 211.265 C 92.646 212.688,93.132 214.063,93.132 215.195 C 93.132 220.772,97.012 221.201,99.718 215.924 C 102.488 210.522,113.311 198.637,118.948 194.806 C 121.820 192.855,127.613 189.988,128.686 189.988 C 129.264 189.988,130.412 189.491,131.235 188.883 C 132.330 188.075,133.638 187.693,136.099 187.459 C 137.950 187.284,140.257 186.933,141.226 186.680 C 142.196 186.426,144.687 186.025,146.763 185.788 C 152.156 185.173,153.331 183.650,151.603 179.514 C 151.236 178.636,150.786 176.914,150.603 175.687 C 150.419 174.461,149.762 171.991,149.141 170.198 C 148.519 168.405,147.724 165.262,147.372 163.213 C 147.020 161.164,146.275 157.392,145.716 154.831 C 143.902 146.515,144.107 128.082,146.113 119.208 C 146.953 115.495,147.969 110.885,148.371 108.964 C 148.774 107.043,149.793 103.690,150.636 101.513 C 151.479 99.336,152.738 96.088,153.433 94.296 C 155.258 89.594,157.589 84.968,159.008 83.230 C 160.768 81.076,163.263 77.211,163.621 76.083 C 164.427 73.546,175.313 60.379,181.482 54.482 C 187.058 49.152,188.106 47.768,186.915 47.311 C 185.790 46.879,183.090 46.981,182.790 47.466 M348.648 259.143 C 361.239 262.882,362.010 282.574,349.801 288.569 L 347.148 289.872 203.366 289.991 L 59.585 290.111 57.150 288.883 C 48.209 284.375,45.151 277.429,47.969 268.025 C 48.705 265.568,54.460 259.900,57.043 259.088 C 60.108 258.124,345.400 258.178,348.648 259.143 M325.495 321.137 C 326.272 321.878,326.831 402.467,326.174 419.076 L 325.852 427.210 324.393 428.664 C 323.590 429.464,321.676 430.577,320.140 431.137 C 318.603 431.696,316.927 432.357,316.414 432.605 C 315.902 432.852,314.551 433.376,313.411 433.769 C 312.271 434.162,310.994 434.795,310.574 435.175 C 310.153 435.556,308.571 436.365,307.058 436.974 C 305.545 437.582,302.526 438.809,300.349 439.699 C 298.172 440.589,295.867 441.478,295.227 441.674 C 294.587 441.871,293.539 442.388,292.899 442.824 C 292.258 443.261,290.887 443.948,289.851 444.351 C 288.815 444.755,285.986 446.029,283.565 447.182 C 281.143 448.336,276.857 450.055,274.040 451.003 C 271.222 451.950,268.603 452.977,268.219 453.283 C 267.210 454.087,259.504 457.977,256.792 459.051 C 248.700 462.255,243.815 464.304,243.350 464.690 C 243.056 464.934,239.468 466.515,235.377 468.203 C 231.286 469.890,226.263 472.083,224.214 473.077 C 222.165 474.070,218.498 475.751,216.065 476.811 C 213.632 477.871,210.745 479.148,209.650 479.649 C 208.555 480.149,207.376 480.559,207.031 480.559 C 206.685 480.559,203.914 481.734,200.873 483.170 C 197.832 484.606,194.610 486.048,193.714 486.374 C 191.818 487.065,180.010 492.345,173.923 495.224 C 168.585 497.749,163.964 499.760,160.419 501.103 C 158.882 501.685,155.634 503.142,153.201 504.342 C 150.768 505.541,147.625 506.895,146.217 507.350 C 144.808 507.805,142.922 508.546,142.026 508.997 C 138.577 510.732,134.223 512.643,133.047 512.938 C 132.372 513.108,131.576 513.540,131.278 513.899 C 130.980 514.258,130.531 514.552,130.281 514.552 C 130.031 514.552,127.640 515.593,124.968 516.866 C 122.297 518.139,119.288 519.402,118.282 519.673 C 117.277 519.943,116.338 520.353,116.196 520.582 C 116.054 520.812,114.840 521.353,113.499 521.785 C 112.157 522.217,110.296 523.084,109.363 523.712 C 108.430 524.340,105.988 525.454,103.936 526.187 C 101.884 526.920,99.529 527.870,98.704 528.297 C 97.878 528.724,96.130 529.389,94.818 529.776 C 93.506 530.163,92.224 530.639,91.967 530.835 C 90.891 531.657,86.811 533.745,84.228 534.794 L 81.450 535.923 80.068 534.667 L 78.686 533.411 78.680 482.420 C 78.676 454.375,78.811 430.696,78.979 429.801 C 79.463 427.224,81.172 425.825,86.096 423.977 C 88.557 423.053,92.456 421.385,94.761 420.271 C 100.636 417.432,106.424 414.901,107.043 414.901 C 107.331 414.901,108.562 414.378,109.779 413.739 C 113.779 411.637,128.952 405.122,129.848 405.122 C 130.330 405.122,131.257 404.703,131.908 404.191 C 132.559 403.679,133.222 403.260,133.382 403.260 C 133.541 403.260,136.022 402.125,138.896 400.738 C 141.770 399.352,145.483 397.689,147.148 397.044 C 152.677 394.901,156.652 393.167,160.652 391.153 C 165.098 388.913,170.314 386.669,172.759 385.943 C 173.655 385.677,174.945 385.064,175.625 384.580 C 176.305 384.097,176.998 383.702,177.166 383.702 C 177.334 383.702,179.214 382.870,181.345 381.853 C 183.475 380.836,186.849 379.472,188.842 378.821 C 190.835 378.171,192.717 377.430,193.024 377.175 C 193.331 376.921,194.712 376.316,196.093 375.832 C 197.473 375.348,200.384 374.079,202.561 373.012 C 209.146 369.784,211.091 368.910,213.038 368.306 C 214.063 367.988,216.054 367.150,217.462 366.444 C 223.128 363.601,229.636 360.670,235.157 358.474 C 241.413 355.986,244.713 354.496,251.088 351.286 C 253.319 350.163,255.423 349.243,255.762 349.243 C 256.102 349.243,257.193 348.829,258.187 348.322 C 259.181 347.816,260.744 347.155,261.662 346.854 C 262.579 346.553,264.901 345.519,266.822 344.555 C 270.229 342.845,274.474 341.008,278.231 339.617 C 279.255 339.237,280.729 338.535,281.505 338.056 C 282.282 337.577,283.955 336.953,285.223 336.669 C 286.491 336.385,287.846 335.879,288.235 335.544 C 289.694 334.288,303.853 327.798,306.467 327.187 C 307.143 327.029,310.601 325.510,314.151 323.811 C 322.896 319.625,323.706 319.434,325.495 321.137 M325.495 573.058 C 326.106 573.641,326.193 579.395,326.193 619.310 L 326.193 664.897 324.914 666.233 C 324.211 666.967,322.534 667.962,321.189 668.444 C 318.177 669.523,313.986 671.557,310.594 673.585 C 309.185 674.427,307.129 675.357,306.024 675.651 C 303.221 676.399,297.692 678.645,292.200 681.267 C 286.216 684.124,283.254 685.448,282.845 685.448 C 282.542 685.448,278.565 687.278,273.133 689.917 C 271.866 690.533,270.585 691.036,270.286 691.036 C 269.986 691.036,269.242 691.413,268.631 691.873 C 268.020 692.333,266.054 693.271,264.261 693.957 C 262.468 694.643,259.115 695.928,256.810 696.812 C 254.505 697.696,249.581 699.880,245.867 701.667 C 242.154 703.453,236.915 705.785,234.226 706.849 C 231.537 707.912,226.822 710.005,223.749 711.499 C 220.675 712.994,217.322 714.476,216.298 714.794 C 215.274 715.112,214.208 715.551,213.930 715.770 C 213.651 715.990,212.604 716.472,211.601 716.842 C 210.599 717.211,206.112 719.202,201.630 721.266 C 197.148 723.329,193.208 725.020,192.875 725.023 C 192.541 725.027,191.493 725.441,190.546 725.944 C 186.037 728.338,175.363 733.082,170.664 734.781 C 169.383 735.244,167.392 736.050,166.240 736.571 C 165.087 737.093,162.782 738.092,161.118 738.791 C 159.453 739.491,157.559 740.434,156.910 740.889 C 156.260 741.343,154.584 742.121,153.185 742.618 C 148.473 744.292,143.229 746.565,136.205 749.979 C 132.363 751.845,128.591 753.582,127.823 753.838 C 125.482 754.617,119.770 757.064,115.155 759.265 C 112.749 760.412,110.669 761.350,110.532 761.350 C 109.923 761.350,103.324 764.293,94.529 768.487 C 82.358 774.290,79.597 774.717,78.911 770.906 C 78.771 770.132,78.718 749.451,78.793 724.947 C 78.951 673.069,78.206 678.917,85.028 676.010 C 87.308 675.039,90.431 673.641,91.967 672.904 C 98.257 669.888,101.038 668.686,105.471 667.068 C 108.033 666.134,111.518 664.664,113.217 663.801 C 114.916 662.939,117.413 661.905,118.766 661.503 C 120.119 661.101,121.558 660.480,121.963 660.122 C 122.369 659.764,124.377 658.732,126.426 657.827 C 136.926 653.192,139.297 652.167,142.724 650.778 C 144.773 649.948,149.773 647.667,153.835 645.709 C 157.897 643.752,162.067 641.922,163.102 641.643 C 164.137 641.365,165.735 640.734,166.653 640.242 C 167.571 639.751,168.597 639.348,168.935 639.348 C 169.272 639.348,170.323 638.935,171.270 638.431 C 173.750 637.109,182.931 632.829,183.285 632.829 C 183.653 632.829,190.300 629.955,193.481 628.421 C 194.761 627.803,197.381 626.638,199.302 625.830 C 201.222 625.023,203.423 624.070,204.191 623.712 C 204.959 623.355,206.520 622.739,207.660 622.345 C 208.800 621.951,210.057 621.348,210.454 621.005 C 210.851 620.662,211.804 620.233,212.573 620.051 C 213.818 619.757,221.798 616.075,226.404 613.671 C 227.353 613.175,229.321 612.360,230.778 611.859 C 232.234 611.358,233.658 610.765,233.942 610.541 C 234.226 610.318,235.611 609.764,237.020 609.312 C 239.191 608.614,243.012 606.861,248.196 604.186 C 248.836 603.855,251.350 602.812,253.783 601.868 C 256.217 600.924,261.141 598.724,264.726 596.979 C 268.312 595.235,272.084 593.554,273.108 593.244 C 274.133 592.934,275.617 592.312,276.406 591.862 C 277.195 591.412,278.662 590.792,279.665 590.485 C 280.669 590.178,283.166 589.122,285.215 588.139 C 287.264 587.156,290.722 585.589,292.899 584.656 C 295.076 583.724,297.905 582.468,299.185 581.865 C 300.466 581.263,302.037 580.621,302.678 580.440 C 303.318 580.258,305.832 579.109,308.265 577.887 C 319.345 572.319,323.497 571.156,325.495 573.058 M324.517 810.453 C 325.687 811.058,325.846 811.430,326.061 814.062 C 326.581 820.424,326.208 897.058,325.651 898.296 C 324.923 899.914,321.147 902.272,318.277 902.899 C 316.997 903.179,315.381 903.820,314.687 904.323 C 313.993 904.827,313.239 905.239,313.011 905.239 C 312.783 905.239,311.674 905.863,310.547 906.627 C 309.420 907.391,308.123 908.019,307.665 908.024 C 307.206 908.029,305.994 908.460,304.971 908.981 C 303.948 909.503,301.390 910.556,299.286 911.321 C 295.772 912.598,291.125 914.645,288.242 916.184 C 285.038 917.895,281.401 919.492,275.917 921.595 C 272.596 922.869,268.945 924.530,267.805 925.285 C 266.664 926.041,265.572 926.659,265.378 926.659 C 265.183 926.659,263.700 927.267,262.081 928.011 C 260.463 928.754,258.405 929.578,257.509 929.841 C 254.982 930.582,249.953 932.742,248.661 933.642 C 248.021 934.088,246.973 934.609,246.333 934.800 C 245.693 934.991,244.435 935.595,243.539 936.142 L 241.909 937.136 161.912 937.258 C 107.151 937.341,81.628 937.227,81.008 936.895 C 77.122 934.815,77.618 916.978,81.603 915.504 C 82.437 915.195,84.482 914.339,86.147 913.602 C 87.811 912.864,89.840 912.134,90.655 911.979 C 91.469 911.825,92.386 911.397,92.691 911.029 C 92.996 910.662,93.500 910.361,93.812 910.361 C 94.123 910.361,96.521 909.313,99.139 908.033 C 101.758 906.752,104.130 905.704,104.410 905.704 C 104.983 905.704,111.479 902.835,117.113 900.094 C 122.065 897.684,127.034 895.604,128.754 895.222 C 130.298 894.879,140.511 889.973,140.861 889.407 C 140.982 889.211,142.813 888.383,144.929 887.567 C 154.880 883.731,156.459 883.079,159.801 881.423 C 161.766 880.450,165.740 878.696,168.632 877.527 C 171.524 876.357,174.243 875.080,174.675 874.690 C 175.106 874.299,176.540 873.695,177.861 873.347 C 179.181 872.998,180.512 872.516,180.818 872.274 C 182.979 870.569,187.779 868.509,193.960 866.634 C 195.505 866.165,199.893 864.175,203.712 862.211 C 207.531 860.247,213.507 857.518,216.991 856.146 C 220.475 854.775,224.050 853.211,224.934 852.672 C 225.819 852.133,226.825 851.691,227.169 851.690 C 227.514 851.689,229.936 850.640,232.552 849.360 C 235.167 848.079,237.528 847.031,237.797 847.031 C 238.067 847.031,240.569 845.960,243.358 844.651 C 252.201 840.500,254.261 839.581,254.725 839.581 C 254.974 839.581,256.508 838.952,258.135 838.184 C 259.761 837.416,261.275 836.787,261.499 836.787 C 261.723 836.787,264.008 835.763,266.576 834.512 C 274.396 830.702,277.107 829.500,281.882 827.729 C 286.413 826.049,289.364 824.732,299.022 820.083 C 301.750 818.769,304.262 817.695,304.605 817.695 C 304.948 817.695,308.348 816.198,312.162 814.368 C 317.753 811.686,321.293 810.207,323.073 809.810 C 323.150 809.793,323.800 810.082,324.517 810.453 M347.609 961.779 C 357.158 965.270,361.323 974.933,357.013 983.597 C 354.880 987.885,352.093 990.800,349.785 991.155 C 348.847 991.300,346.612 991.732,344.820 992.115 C 341.957 992.727,324.411 992.796,200.931 992.676 L 60.303 992.540 57.399 991.512 C 50.190 988.960,46.485 982.818,47.283 974.743 C 47.943 968.063,49.905 965.559,57.276 961.993 C 60.817 960.279,59.304 960.296,203.492 960.358 L 343.888 960.419 347.609 961.779 M320.194 1003.252 L 321.310 1003.983 320.406 1005.755 C 319.909 1006.729,318.808 1008.057,317.958 1008.705 C 317.109 1009.354,315.052 1011.181,313.388 1012.766 C 311.723 1014.351,309.418 1016.199,308.265 1016.874 C 306.149 1018.112,301.055 1021.254,295.925 1024.485 C 294.389 1025.453,291.350 1027.007,289.173 1027.937 C 286.997 1028.868,282.910 1030.645,280.093 1031.887 C 275.027 1034.119,270.669 1035.720,267.055 1036.674 C 266.030 1036.945,263.935 1037.634,262.398 1038.205 C 260.861 1038.776,258.569 1039.391,257.303 1039.571 C 256.038 1039.750,254.047 1040.272,252.880 1040.731 C 251.712 1041.189,249.395 1041.715,247.730 1041.900 C 246.065 1042.084,243.202 1042.641,241.366 1043.138 C 239.531 1043.634,235.549 1044.226,232.519 1044.454 C 229.488 1044.681,226.275 1045.096,225.378 1045.376 C 220.422 1046.922,186.588 1047.117,180.210 1045.636 C 178.545 1045.250,174.040 1044.725,170.198 1044.469 C 165.908 1044.183,162.045 1043.654,160.186 1043.098 C 158.522 1042.600,155.902 1041.988,154.366 1041.737 C 152.829 1041.487,150.804 1040.956,149.865 1040.558 C 148.927 1040.160,146.622 1039.605,144.743 1039.325 C 142.864 1039.044,139.825 1038.306,137.989 1037.684 C 136.154 1037.063,134.319 1036.554,133.913 1036.554 C 133.507 1036.554,132.393 1036.135,131.437 1035.623 C 130.481 1035.111,129.315 1034.692,128.844 1034.692 C 128.374 1034.692,127.113 1034.183,126.043 1033.561 C 124.973 1032.940,121.937 1031.574,119.297 1030.527 C 110.881 1027.190,107.165 1025.131,95.764 1017.489 C 89.371 1013.204,84.322 1008.778,82.291 1005.679 C 81.244 1004.082,81.275 1003.839,82.627 1003.018 C 84.409 1001.937,318.538 1002.167,320.194 1003.252 M199.302 1053.356 C 204.040 1053.297,210.152 1053.212,212.885 1053.167 C 221.338 1053.027,222.871 1057.616,217.729 1067.664 C 212.950 1077.003,198.950 1079.090,189.896 1071.814 C 182.413 1065.801,181.441 1052.067,188.575 1053.144 C 189.737 1053.319,194.563 1053.414,199.302 1053.356 " stroke="none" fill="#fefff1" fill-rule="evenodd"></path><path id="path1" d="M0.000 558.789 L 0.000 1117.579 200.000 1117.579 L 400.000 1117.579 400.000 558.789 L 400.000 0.000 200.000 0.000 L 0.000 0.000 0.000 558.789 M215.832 16.064 C 217.369 16.487,221.036 17.008,223.981 17.222 C 227.426 17.472,230.173 17.941,231.682 18.538 C 232.972 19.048,235.277 19.615,236.804 19.798 C 238.331 19.980,240.726 20.525,242.126 21.008 C 243.526 21.491,245.307 21.886,246.086 21.886 C 246.864 21.886,248.995 22.611,250.821 23.497 C 252.647 24.383,257.361 26.392,261.297 27.961 C 269.543 31.250,274.659 33.739,277.849 36.015 C 279.083 36.896,281.979 38.613,284.284 39.832 C 286.589 41.050,289.732 43.122,291.269 44.437 C 292.806 45.751,295.739 48.077,297.788 49.606 C 310.341 58.974,325.981 77.871,336.671 96.584 C 337.311 97.704,338.499 99.723,339.312 101.069 C 340.124 102.415,341.554 105.738,342.491 108.452 C 343.427 111.167,344.600 114.331,345.098 115.483 C 346.014 117.601,346.989 120.750,349.027 128.167 C 349.642 130.405,350.440 132.815,350.800 133.522 C 351.161 134.229,351.605 136.484,351.787 138.533 C 351.970 140.582,352.531 143.725,353.034 145.518 C 355.457 154.145,355.471 190.397,353.055 198.162 C 352.573 199.712,352.029 202.331,351.845 203.982 C 351.452 207.532,350.672 210.962,350.089 211.711 C 349.860 212.006,349.462 213.550,349.206 215.144 C 348.949 216.737,348.339 218.825,347.850 219.784 C 347.360 220.743,346.715 222.551,346.417 223.802 C 346.118 225.053,344.977 227.858,343.882 230.035 C 336.789 244.133,336.780 245.263,343.752 246.531 C 352.368 248.099,353.995 248.626,357.698 251.047 C 374.615 262.107,374.500 285.780,357.475 296.971 C 353.765 299.409,351.479 300.342,349.199 300.347 C 347.243 300.351,342.612 302.066,342.065 302.990 C 341.787 303.458,341.424 304.261,341.257 304.773 C 340.427 307.326,340.844 945.481,341.677 947.148 C 342.527 948.849,344.899 949.785,348.645 949.897 C 358.878 950.203,370.198 964.195,370.198 976.537 C 370.198 991.283,357.374 1004.424,342.982 1004.424 C 339.033 1004.424,337.383 1005.440,330.654 1012.013 C 324.551 1017.975,315.107 1026.113,312.224 1027.895 C 311.455 1028.370,310.303 1029.228,309.662 1029.801 C 308.403 1030.929,288.539 1041.225,285.318 1042.419 C 284.237 1042.820,280.314 1044.192,276.601 1045.468 C 272.887 1046.743,269.188 1048.089,268.381 1048.457 C 267.574 1048.826,266.317 1049.129,265.587 1049.131 C 264.858 1049.134,263.137 1049.659,261.764 1050.298 C 260.390 1050.938,258.399 1051.582,257.340 1051.731 C 256.280 1051.879,253.632 1052.491,251.455 1053.090 C 249.240 1053.699,245.344 1054.313,242.608 1054.485 C 234.370 1055.001,232.593 1056.322,231.828 1062.499 C 230.823 1070.600,225.124 1079.279,218.034 1083.506 C 199.330 1094.655,176.217 1083.907,172.935 1062.534 C 172.521 1059.838,171.085 1057.095,169.830 1056.602 C 166.905 1055.455,161.529 1054.246,159.360 1054.248 C 158.009 1054.248,155.704 1053.810,154.237 1053.272 C 152.771 1052.735,149.710 1052.126,147.436 1051.918 C 144.349 1051.635,142.956 1051.285,141.943 1050.536 C 141.149 1049.950,139.001 1049.236,136.766 1048.817 C 134.665 1048.424,132.725 1047.922,132.455 1047.702 C 131.961 1047.299,123.428 1044.245,120.838 1043.544 C 116.278 1042.309,110.217 1039.511,106.095 1036.737 C 104.804 1035.868,103.507 1035.156,103.213 1035.154 C 102.918 1035.153,102.154 1034.867,101.513 1034.520 C 95.542 1031.280,93.419 1030.020,89.937 1027.646 C 82.714 1022.720,76.911 1017.714,70.563 1010.932 C 66.145 1006.213,63.590 1004.424,61.268 1004.424 C 51.559 1004.424,39.892 994.792,36.500 983.977 C 34.661 978.116,36.540 967.071,40.260 961.864 C 41.157 960.610,42.005 959.220,42.147 958.774 C 42.845 956.574,53.767 949.963,56.784 949.916 C 59.268 949.876,61.496 948.935,62.587 947.463 L 63.562 946.148 63.562 625.228 C 63.562 364.660,63.450 304.110,62.964 303.260 C 61.965 301.511,60.372 300.809,56.371 300.352 C 52.376 299.897,51.023 299.293,47.375 296.341 C 46.290 295.462,44.641 294.128,43.712 293.376 C 37.272 288.167,33.798 272.555,37.491 265.415 C 37.872 264.678,38.184 263.678,38.184 263.193 C 38.184 261.676,42.944 255.102,45.484 253.111 C 51.323 248.535,50.797 248.765,59.429 247.011 C 63.296 246.226,62.891 242.540,57.742 231.665 C 56.486 229.012,54.016 222.169,54.016 221.342 C 54.016 220.959,53.411 219.248,52.672 217.540 C 51.932 215.833,51.081 212.984,50.781 211.209 C 50.481 209.435,50.041 207.621,49.804 207.178 C 49.568 206.736,49.061 204.293,48.679 201.750 C 48.297 199.207,47.616 195.677,47.166 193.906 C 45.769 188.414,45.934 152.979,47.381 147.875 C 47.957 145.842,48.428 143.495,48.428 142.659 C 48.428 140.606,49.328 136.489,50.113 134.951 C 50.465 134.262,50.945 132.339,51.180 130.679 C 51.428 128.931,52.015 127.107,52.576 126.345 C 53.108 125.621,53.680 123.981,53.846 122.701 C 54.013 121.420,54.643 119.384,55.247 118.176 C 55.851 116.968,56.345 115.365,56.345 114.615 C 56.345 113.864,57.291 111.359,58.447 109.049 C 59.604 106.739,60.864 103.959,61.248 102.872 C 61.631 101.785,62.132 100.668,62.360 100.389 C 62.814 99.835,64.797 96.262,66.225 93.423 C 74.405 77.163,95.894 53.572,112.479 42.644 C 114.003 41.640,115.818 40.435,116.512 39.967 C 117.206 39.498,117.952 39.115,118.170 39.115 C 118.389 39.115,119.051 38.664,119.643 38.113 C 122.772 35.198,135.114 29.251,145.742 25.537 C 147.915 24.778,150.325 23.773,151.098 23.304 C 151.870 22.836,153.206 22.303,154.065 22.121 C 154.924 21.939,156.496 21.408,157.557 20.940 C 158.619 20.472,160.850 19.951,162.515 19.782 C 164.179 19.613,167.008 19.087,168.801 18.613 C 170.594 18.140,173.318 17.624,174.854 17.467 C 176.391 17.309,179.220 16.848,181.141 16.442 C 189.171 14.743,210.201 14.514,215.832 16.064 M188.787 27.027 C 179.848 27.386,178.870 27.512,174.223 28.911 C 172.596 29.401,170.291 29.811,169.101 29.823 C 167.912 29.834,166.100 30.164,165.076 30.557 C 164.051 30.950,162.165 31.581,160.885 31.960 C 148.970 35.490,142.625 38.153,130.151 44.861 C 124.355 47.979,122.277 49.299,118.306 52.386 C 117.318 53.155,115.312 54.622,113.848 55.646 C 109.009 59.033,107.871 60.042,99.172 68.661 C 94.426 73.363,89.502 78.704,88.229 80.530 C 86.956 82.356,84.687 85.467,83.188 87.443 C 81.688 89.419,79.947 91.979,79.318 93.132 C 78.689 94.284,77.373 96.589,76.394 98.254 C 73.220 103.648,67.441 115.638,66.567 118.642 C 66.098 120.251,65.310 122.242,64.815 123.065 C 64.320 123.889,63.789 125.692,63.637 127.070 C 63.484 128.449,62.931 130.399,62.407 131.402 C 61.884 132.406,61.262 134.526,61.026 136.113 C 60.789 137.700,60.171 140.174,59.653 141.609 C 59.015 143.380,58.557 146.399,58.230 150.999 C 57.966 154.727,57.501 158.896,57.199 160.262 C 56.368 164.015,56.461 175.855,57.370 182.072 C 57.801 185.017,58.289 189.406,58.455 191.824 C 58.629 194.363,59.131 197.169,59.642 198.467 C 60.130 199.703,60.740 202.580,60.998 204.860 C 61.506 209.350,61.611 209.779,62.867 212.573 C 63.328 213.597,63.913 215.274,64.166 216.298 C 64.704 218.478,69.275 230.500,69.829 231.192 C 70.037 231.452,71.720 234.660,73.569 238.322 C 75.725 242.591,77.365 245.263,78.142 245.772 C 80.049 247.021,320.370 247.229,322.395 245.983 C 324.379 244.763,333.555 227.749,334.066 224.343 C 334.239 223.186,334.772 221.472,335.250 220.535 C 335.728 219.598,336.373 217.737,336.684 216.401 C 336.995 215.064,337.626 213.341,338.086 212.573 C 338.546 211.804,339.143 209.604,339.413 207.683 C 339.682 205.763,340.328 202.991,340.848 201.525 C 341.368 200.059,341.794 197.859,341.795 196.636 C 341.796 195.413,342.259 191.793,342.825 188.591 C 344.048 181.665,344.397 156.776,343.314 153.667 C 343.002 152.771,342.424 149.388,342.029 146.150 C 341.634 142.912,340.926 139.141,340.456 137.768 C 339.985 136.396,339.445 134.231,339.255 132.956 C 339.065 131.682,338.510 129.855,338.022 128.897 C 337.533 127.939,336.896 126.050,336.606 124.700 C 336.317 123.349,335.811 121.823,335.484 121.308 C 335.156 120.794,334.580 119.319,334.205 118.030 C 333.829 116.742,333.079 114.961,332.537 114.072 C 331.995 113.184,331.551 112.174,331.550 111.830 C 331.549 111.485,331.164 110.647,330.694 109.967 C 330.223 109.287,329.269 107.264,328.572 105.471 C 327.875 103.679,326.624 101.164,325.792 99.884 C 324.960 98.603,323.785 96.612,323.181 95.460 C 322.048 93.300,316.254 85.136,311.779 79.395 C 306.526 72.654,292.845 59.299,287.776 55.964 C 286.368 55.037,283.644 53.096,281.723 51.650 C 277.487 48.463,271.898 45.047,269.111 43.942 C 267.980 43.494,265.965 42.434,264.632 41.587 C 263.300 40.740,262.073 40.047,261.906 40.047 C 261.739 40.047,260.524 39.503,259.206 38.839 C 253.850 36.139,238.754 31.063,232.863 29.981 C 230.667 29.578,227.509 28.860,225.844 28.385 C 223.070 27.594,204.398 26.372,198.836 26.617 C 197.939 26.657,193.418 26.841,188.787 27.027 M186.915 47.311 C 188.106 47.768,187.058 49.152,181.482 54.482 C 175.313 60.379,164.427 73.546,163.621 76.083 C 163.263 77.211,160.768 81.076,159.008 83.230 C 157.589 84.968,155.258 89.594,153.433 94.296 C 152.738 96.088,151.479 99.336,150.636 101.513 C 149.793 103.690,148.774 107.043,148.371 108.964 C 147.969 110.885,146.953 115.495,146.113 119.208 C 144.107 128.082,143.902 146.515,145.716 154.831 C 146.275 157.392,147.020 161.164,147.372 163.213 C 147.724 165.262,148.519 168.405,149.141 170.198 C 149.762 171.991,150.419 174.461,150.603 175.687 C 150.786 176.914,151.236 178.636,151.603 179.514 C 153.331 183.650,152.156 185.173,146.763 185.788 C 144.687 186.025,142.196 186.426,141.226 186.680 C 140.257 186.933,137.950 187.284,136.099 187.459 C 133.638 187.693,132.330 188.075,131.235 188.883 C 130.412 189.491,129.264 189.988,128.686 189.988 C 127.613 189.988,121.820 192.855,118.948 194.806 C 113.311 198.637,102.488 210.522,99.718 215.924 C 97.012 221.201,93.132 220.772,93.132 215.195 C 93.132 214.063,92.646 212.688,91.744 211.265 C 90.572 209.418,90.283 208.335,89.888 204.306 C 89.631 201.681,89.083 198.487,88.672 197.206 C 87.544 193.699,87.548 162.477,88.676 158.595 C 89.100 157.138,89.641 153.738,89.878 151.040 C 90.189 147.500,90.623 145.465,91.437 143.731 C 92.058 142.409,92.822 140.078,93.135 138.552 C 93.448 137.025,93.992 135.337,94.344 134.800 C 95.039 133.739,97.788 126.068,97.788 125.189 C 97.788 123.615,103.445 112.836,108.991 103.842 C 110.589 101.250,116.087 93.523,118.764 90.105 C 123.022 84.670,140.570 67.986,142.029 67.986 C 142.215 67.986,143.781 66.859,145.510 65.482 C 150.096 61.827,155.682 58.614,163.446 55.166 C 165.623 54.199,167.823 53.036,168.335 52.582 C 168.847 52.128,169.895 51.612,170.664 51.435 C 171.432 51.258,173.213 50.625,174.622 50.029 C 176.030 49.433,178.384 48.710,179.852 48.422 C 181.320 48.135,182.642 47.705,182.790 47.466 C 183.090 46.981,185.790 46.879,186.915 47.311 M57.043 259.088 C 54.460 259.900,48.705 265.568,47.969 268.025 C 45.151 277.429,48.209 284.375,57.150 288.883 L 59.585 290.111 203.366 289.991 L 347.148 289.872 349.801 288.569 C 362.010 282.574,361.239 262.882,348.648 259.143 C 345.400 258.178,60.108 258.124,57.043 259.088 M321.769 320.359 C 321.129 320.558,317.701 322.112,314.151 323.811 C 310.601 325.510,307.143 327.029,306.467 327.187 C 303.853 327.798,289.694 334.288,288.235 335.544 C 287.846 335.879,286.491 336.385,285.223 336.669 C 283.955 336.953,282.282 337.577,281.505 338.056 C 280.729 338.535,279.255 339.237,278.231 339.617 C 274.474 341.008,270.229 342.845,266.822 344.555 C 264.901 345.519,262.579 346.553,261.662 346.854 C 260.744 347.155,259.181 347.816,258.187 348.322 C 257.193 348.829,256.102 349.243,255.762 349.243 C 255.423 349.243,253.319 350.163,251.088 351.286 C 244.713 354.496,241.413 355.986,235.157 358.474 C 229.636 360.670,223.128 363.601,217.462 366.444 C 216.054 367.150,214.063 367.988,213.038 368.306 C 211.091 368.910,209.146 369.784,202.561 373.012 C 200.384 374.079,197.473 375.348,196.093 375.832 C 194.712 376.316,193.331 376.921,193.024 377.175 C 192.717 377.430,190.835 378.171,188.842 378.821 C 186.849 379.472,183.475 380.836,181.345 381.853 C 179.214 382.870,177.334 383.702,177.166 383.702 C 176.998 383.702,176.305 384.097,175.625 384.580 C 174.945 385.064,173.655 385.677,172.759 385.943 C 170.314 386.669,165.098 388.913,160.652 391.153 C 156.652 393.167,152.677 394.901,147.148 397.044 C 145.483 397.689,141.770 399.352,138.896 400.738 C 136.022 402.125,133.541 403.260,133.382 403.260 C 133.222 403.260,132.559 403.679,131.908 404.191 C 131.257 404.703,130.330 405.122,129.848 405.122 C 128.952 405.122,113.779 411.637,109.779 413.739 C 108.562 414.378,107.331 414.901,107.043 414.901 C 106.424 414.901,100.636 417.432,94.761 420.271 C 92.456 421.385,88.557 423.053,86.096 423.977 C 81.172 425.825,79.463 427.224,78.979 429.801 C 78.811 430.696,78.676 454.375,78.680 482.420 L 78.686 533.411 80.068 534.667 L 81.450 535.923 84.228 534.794 C 86.811 533.745,90.891 531.657,91.967 530.835 C 92.224 530.639,93.506 530.163,94.818 529.776 C 96.130 529.389,97.878 528.724,98.704 528.297 C 99.529 527.870,101.884 526.920,103.936 526.187 C 105.988 525.454,108.430 524.340,109.363 523.712 C 110.296 523.084,112.157 522.217,113.499 521.785 C 114.840 521.353,116.054 520.812,116.196 520.582 C 116.338 520.353,117.277 519.943,118.282 519.673 C 119.288 519.402,122.297 518.139,124.968 516.866 C 127.640 515.593,130.031 514.552,130.281 514.552 C 130.531 514.552,130.980 514.258,131.278 513.899 C 131.576 513.540,132.372 513.108,133.047 512.938 C 134.223 512.643,138.577 510.732,142.026 508.997 C 142.922 508.546,144.808 507.805,146.217 507.350 C 147.625 506.895,150.768 505.541,153.201 504.342 C 155.634 503.142,158.882 501.685,160.419 501.103 C 163.964 499.760,168.585 497.749,173.923 495.224 C 180.010 492.345,191.818 487.065,193.714 486.374 C 194.610 486.048,197.832 484.606,200.873 483.170 C 203.914 481.734,206.685 480.559,207.031 480.559 C 207.376 480.559,208.555 480.149,209.650 479.649 C 210.745 479.148,213.632 477.871,216.065 476.811 C 218.498 475.751,222.165 474.070,224.214 473.077 C 226.263 472.083,231.286 469.890,235.377 468.203 C 239.468 466.515,243.056 464.934,243.350 464.690 C 243.815 464.304,248.700 462.255,256.792 459.051 C 259.504 457.977,267.210 454.087,268.219 453.283 C 268.603 452.977,271.222 451.950,274.040 451.003 C 276.857 450.055,281.143 448.336,283.565 447.182 C 285.986 446.029,288.815 444.755,289.851 444.351 C 290.887 443.948,292.258 443.261,292.899 442.824 C 293.539 442.388,294.587 441.871,295.227 441.674 C 295.867 441.478,298.172 440.589,300.349 439.699 C 302.526 438.809,305.545 437.582,307.058 436.974 C 308.571 436.365,310.153 435.556,310.574 435.175 C 310.994 434.795,312.271 434.162,313.411 433.769 C 314.551 433.376,315.902 432.852,316.414 432.605 C 316.927 432.357,318.603 431.696,320.140 431.137 C 321.676 430.577,323.590 429.464,324.393 428.664 L 325.852 427.210 326.174 419.076 C 326.831 402.467,326.272 321.878,325.495 321.137 C 324.529 320.218,323.148 319.930,321.769 320.359 M321.779 572.176 C 320.092 572.483,313.349 575.333,308.265 577.887 C 305.832 579.109,303.318 580.258,302.678 580.440 C 302.037 580.621,300.466 581.263,299.185 581.865 C 297.905 582.468,295.076 583.724,292.899 584.656 C 290.722 585.589,287.264 587.156,285.215 588.139 C 283.166 589.122,280.669 590.178,279.665 590.485 C 278.662 590.792,277.195 591.412,276.406 591.862 C 275.617 592.312,274.133 592.934,273.108 593.244 C 272.084 593.554,268.312 595.235,264.726 596.979 C 261.141 598.724,256.217 600.924,253.783 601.868 C 251.350 602.812,248.836 603.855,248.196 604.186 C 243.012 606.861,239.191 608.614,237.020 609.312 C 235.611 609.764,234.226 610.318,233.942 610.541 C 233.658 610.765,232.234 611.358,230.778 611.859 C 229.321 612.360,227.353 613.175,226.404 613.671 C 221.798 616.075,213.818 619.757,212.573 620.051 C 211.804 620.233,210.851 620.662,210.454 621.005 C 210.057 621.348,208.800 621.951,207.660 622.345 C 206.520 622.739,204.959 623.355,204.191 623.712 C 203.423 624.070,201.222 625.023,199.302 625.830 C 197.381 626.638,194.761 627.803,193.481 628.421 C 190.300 629.955,183.653 632.829,183.285 632.829 C 182.931 632.829,173.750 637.109,171.270 638.431 C 170.323 638.935,169.272 639.348,168.935 639.348 C 168.597 639.348,167.571 639.751,166.653 640.242 C 165.735 640.734,164.137 641.365,163.102 641.643 C 162.067 641.922,157.897 643.752,153.835 645.709 C 149.773 647.667,144.773 649.948,142.724 650.778 C 139.297 652.167,136.926 653.192,126.426 657.827 C 124.377 658.732,122.369 659.764,121.963 660.122 C 121.558 660.480,120.119 661.101,118.766 661.503 C 117.413 661.905,114.916 662.939,113.217 663.801 C 111.518 664.664,108.033 666.134,105.471 667.068 C 101.038 668.686,98.257 669.888,91.967 672.904 C 90.431 673.641,87.308 675.039,85.028 676.010 C 78.206 678.917,78.951 673.069,78.793 724.947 C 78.718 749.451,78.771 770.132,78.911 770.906 C 79.597 774.717,82.358 774.290,94.529 768.487 C 103.324 764.293,109.923 761.350,110.532 761.350 C 110.669 761.350,112.749 760.412,115.155 759.265 C 119.770 757.064,125.482 754.617,127.823 753.838 C 128.591 753.582,132.363 751.845,136.205 749.979 C 143.229 746.565,148.473 744.292,153.185 742.618 C 154.584 742.121,156.260 741.343,156.910 740.889 C 157.559 740.434,159.453 739.491,161.118 738.791 C 162.782 738.092,165.087 737.093,166.240 736.571 C 167.392 736.050,169.383 735.244,170.664 734.781 C 175.363 733.082,186.037 728.338,190.546 725.944 C 191.493 725.441,192.541 725.027,192.875 725.023 C 193.208 725.020,197.148 723.329,201.630 721.266 C 206.112 719.202,210.599 717.211,211.601 716.842 C 212.604 716.472,213.651 715.990,213.930 715.770 C 214.208 715.551,215.274 715.112,216.298 714.794 C 217.322 714.476,220.675 712.994,223.749 711.499 C 226.822 710.005,231.537 707.912,234.226 706.849 C 236.915 705.785,242.154 703.453,245.867 701.667 C 249.581 699.880,254.505 697.696,256.810 696.812 C 259.115 695.928,262.468 694.643,264.261 693.957 C 266.054 693.271,268.020 692.333,268.631 691.873 C 269.242 691.413,269.986 691.036,270.286 691.036 C 270.585 691.036,271.866 690.533,273.133 689.917 C 278.565 687.278,282.542 685.448,282.845 685.448 C 283.254 685.448,286.216 684.124,292.200 681.267 C 297.692 678.645,303.221 676.399,306.024 675.651 C 307.129 675.357,309.185 674.427,310.594 673.585 C 313.986 671.557,318.177 669.523,321.189 668.444 C 322.534 667.962,324.211 666.967,324.914 666.233 L 326.193 664.897 326.193 619.310 C 326.193 579.395,326.106 573.641,325.495 573.058 C 324.619 572.224,323.272 571.905,321.779 572.176 M321.015 810.441 C 319.960 810.772,315.976 812.539,312.162 814.368 C 308.348 816.198,304.948 817.695,304.605 817.695 C 304.262 817.695,301.750 818.769,299.022 820.083 C 289.364 824.732,286.413 826.049,281.882 827.729 C 277.107 829.500,274.396 830.702,266.576 834.512 C 264.008 835.763,261.723 836.787,261.499 836.787 C 261.275 836.787,259.761 837.416,258.135 838.184 C 256.508 838.952,254.974 839.581,254.725 839.581 C 254.261 839.581,252.201 840.500,243.358 844.651 C 240.569 845.960,238.067 847.031,237.797 847.031 C 237.528 847.031,235.167 848.079,232.552 849.360 C 229.936 850.640,227.514 851.689,227.169 851.690 C 226.825 851.691,225.819 852.133,224.934 852.672 C 224.050 853.211,220.475 854.775,216.991 856.146 C 213.507 857.518,207.531 860.247,203.712 862.211 C 199.893 864.175,195.505 866.165,193.960 866.634 C 187.779 868.509,182.979 870.569,180.818 872.274 C 180.512 872.516,179.181 872.998,177.861 873.347 C 176.540 873.695,175.106 874.299,174.675 874.690 C 174.243 875.080,171.524 876.357,168.632 877.527 C 165.740 878.696,161.766 880.450,159.801 881.423 C 156.459 883.079,154.880 883.731,144.929 887.567 C 142.813 888.383,140.982 889.211,140.861 889.407 C 140.511 889.973,130.298 894.879,128.754 895.222 C 127.034 895.604,122.065 897.684,117.113 900.094 C 111.479 902.835,104.983 905.704,104.410 905.704 C 104.130 905.704,101.758 906.752,99.139 908.033 C 96.521 909.313,94.123 910.361,93.812 910.361 C 93.500 910.361,92.996 910.662,92.691 911.029 C 92.386 911.397,91.469 911.825,90.655 911.979 C 89.840 912.134,87.811 912.864,86.147 913.602 C 84.482 914.339,82.437 915.195,81.603 915.504 C 77.618 916.978,77.122 934.815,81.008 936.895 C 81.628 937.227,107.151 937.341,161.912 937.258 L 241.909 937.136 243.539 936.142 C 244.435 935.595,245.693 934.991,246.333 934.800 C 246.973 934.609,248.021 934.088,248.661 933.642 C 249.953 932.742,254.982 930.582,257.509 929.841 C 258.405 929.578,260.463 928.754,262.081 928.011 C 263.700 927.267,265.183 926.659,265.378 926.659 C 265.572 926.659,266.664 926.041,267.805 925.285 C 268.945 924.530,272.596 922.869,275.917 921.595 C 281.401 919.492,285.038 917.895,288.242 916.184 C 291.125 914.645,295.772 912.598,299.286 911.321 C 301.390 910.556,303.948 909.503,304.971 908.981 C 305.994 908.460,307.206 908.029,307.665 908.024 C 308.123 908.019,309.420 907.391,310.547 906.627 C 311.674 905.863,312.783 905.239,313.011 905.239 C 313.239 905.239,313.993 904.827,314.687 904.323 C 315.381 903.820,316.997 903.179,318.277 902.899 C 321.147 902.272,324.923 899.914,325.651 898.296 C 326.208 897.058,326.581 820.424,326.061 814.062 C 325.841 811.364,324.521 809.487,323.073 809.810 C 322.996 809.827,322.070 810.111,321.015 810.441 M61.234 960.638 C 56.132 961.571,49.917 965.779,48.593 969.197 C 44.800 978.991,48.497 988.360,57.399 991.512 L 60.303 992.540 200.931 992.676 C 324.411 992.796,341.957 992.727,344.820 992.115 C 346.612 991.732,348.847 991.300,349.785 991.155 C 352.093 990.800,354.880 987.885,357.013 983.597 C 361.323 974.933,357.158 965.270,347.609 961.779 L 343.888 960.419 203.492 960.358 C 126.275 960.325,62.258 960.451,61.234 960.638 M82.627 1003.018 C 79.968 1004.632,85.229 1010.428,95.764 1017.489 C 107.165 1025.131,110.881 1027.190,119.297 1030.527 C 121.937 1031.574,124.973 1032.940,126.043 1033.561 C 127.113 1034.183,128.374 1034.692,128.844 1034.692 C 129.315 1034.692,130.481 1035.111,131.437 1035.623 C 132.393 1036.135,133.507 1036.554,133.913 1036.554 C 134.319 1036.554,136.154 1037.063,137.989 1037.684 C 139.825 1038.306,142.864 1039.044,144.743 1039.325 C 146.622 1039.605,148.927 1040.160,149.865 1040.558 C 150.804 1040.956,152.829 1041.487,154.366 1041.737 C 155.902 1041.988,158.522 1042.600,160.186 1043.098 C 162.045 1043.654,165.908 1044.183,170.198 1044.469 C 174.040 1044.725,178.545 1045.250,180.210 1045.636 C 186.588 1047.117,220.422 1046.922,225.378 1045.376 C 226.275 1045.096,229.488 1044.681,232.519 1044.454 C 235.549 1044.226,239.531 1043.634,241.366 1043.138 C 243.202 1042.641,246.065 1042.084,247.730 1041.900 C 249.395 1041.715,251.712 1041.189,252.880 1040.731 C 254.047 1040.272,256.038 1039.750,257.303 1039.571 C 258.569 1039.391,260.861 1038.776,262.398 1038.205 C 263.935 1037.634,266.030 1036.945,267.055 1036.674 C 270.669 1035.720,275.027 1034.119,280.093 1031.887 C 282.910 1030.645,286.997 1028.868,289.173 1027.937 C 291.350 1027.007,294.389 1025.453,295.925 1024.485 C 301.055 1021.254,306.149 1018.112,308.265 1016.874 C 309.418 1016.199,311.723 1014.351,313.388 1012.766 C 315.052 1011.181,317.109 1009.354,317.958 1008.705 C 318.808 1008.057,319.909 1006.729,320.406 1005.755 L 321.310 1003.983 320.194 1003.252 C 318.538 1002.167,84.409 1001.937,82.627 1003.018 M185.153 1054.193 C 181.850 1057.641,184.497 1067.475,189.896 1071.814 C 198.950 1079.090,212.950 1077.003,217.729 1067.664 C 222.871 1057.616,221.338 1053.027,212.885 1053.167 C 196.801 1053.433,190.454 1053.427,188.575 1053.144 C 186.646 1052.853,186.350 1052.943,185.153 1054.193 " stroke="none" fill="#080607" fill-rule="evenodd"></path></g></svg>